<svg width="31" height="25" viewBox="0 0 31 25" fill="none" xmlns="http://www.w3.org/2000/svg">
<rect x="0.75" y="0.750122" width="9.67448" height="22.7114" rx="4.83724" fill="white" stroke="black" stroke-width="1.5"/>
<rect x="19.8218" y="0.750122" width="9.67448" height="22.7114" rx="4.83724" fill="white" stroke="black" stroke-width="1.5"/>
<path d="M2.48218 1.93652C4.49855 0.184046 7.55389 0.397735 9.3064 2.41406L18.5935 13.0996C20.3457 15.116 20.1313 18.1714 18.115 19.9238C16.0986 21.676 13.0432 21.4616 11.2908 19.4453L2.00464 8.76074C0.252183 6.7444 0.465922 3.68904 2.48218 1.93652Z" fill="#F96859" stroke="black" stroke-width="1.5"/>
<path d="M20.9645 2.41406C22.717 0.397676 25.7723 0.18404 27.7887 1.93652C29.8051 3.68902 30.0187 6.74435 28.2662 8.76074L18.9781 19.4473C17.2257 21.4636 14.1703 21.6782 12.1539 19.9258C10.1375 18.1733 9.92391 15.118 11.6764 13.1016L20.9645 2.41406Z" fill="#FEB835" stroke="black" stroke-width="1.5"/>
</svg>
